<svg xmlns="http://www.w3.org/2000/svg" xmlns:xlink="http://www.w3.org/1999/xlink" width="0" height="0" style="position:absolute">
	
		<symbol id="alert-attention" viewBox="0 0 286.054 286.054">
			<path d="M143.027 0C64.04 0 0 64.04 0 143.027c0 78.996 64.04 143.027 143.027 143.027 78.996 0 143.027-64.022 143.027-143.027C286.054 64.04 222.022 0 143.027 0zm0 259.236c-64.183 0-116.209-52.026-116.209-116.209S78.844 26.818 143.027 26.818s116.209 52.026 116.209 116.209-52.026 116.209-116.209 116.209zm.009-196.51c-10.244 0-17.995 5.346-17.995 13.981v79.201c0 8.644 7.75 13.972 17.995 13.972 9.994 0 17.995-5.551 17.995-13.972V76.707c-.001-8.43-8.001-13.981-17.995-13.981zm0 124.997c-9.842 0-17.852 8.01-17.852 17.86 0 9.833 8.01 17.843 17.852 17.843s17.843-8.01 17.843-17.843c-.001-9.851-8.001-17.86-17.843-17.86z" fill="#ffe03f"></path>
		</symbol>
	
		<symbol id="alert-info" viewBox="0 0 330 330">
			<g fill="#e5e5e5"><path d="M165 0C74.019 0 0 74.02 0 165.001 0 255.982 74.019 330 165 330s165-74.018 165-164.999S255.981 0 165 0zm0 300c-74.44 0-135-60.56-135-134.999S90.56 30 165 30s135 60.562 135 135.001C300 239.44 239.439 300 165 300z"></path><path d="M164.998 70c-11.026 0-19.996 8.976-19.996 20.009 0 11.023 8.97 19.991 19.996 19.991 11.026 0 19.996-8.968 19.996-19.991 0-11.033-8.97-20.009-19.996-20.009zM165 140c-8.284 0-15 6.716-15 15v90c0 8.284 6.716 15 15 15 8.284 0 15-6.716 15-15v-90c0-8.284-6.716-15-15-15z"></path></g>
		</symbol>
	
		<symbol id="alert-invalid" viewBox="0 0 286.054 286.054">
			<path d="M168.352 142.924l25.28-25.28c3.495-3.504 3.495-9.154 0-12.64l-12.64-12.649c-3.495-3.486-9.145-3.495-12.64 0l-25.289 25.289-25.271-25.271c-3.504-3.504-9.163-3.504-12.658-.018l-12.64 12.649c-3.495 3.486-3.486 9.154.018 12.649l25.271 25.271-25.227 25.226a8.93 8.93 0 0 0 0 12.64l12.64 12.649c3.495 3.486 9.145 3.495 12.64 0l25.226-25.226 25.405 25.414c3.504 3.504 9.163 3.504 12.658.009l12.64-12.64c3.495-3.495 3.486-9.154-.009-12.658l-25.404-25.414zM143.027.004C64.031.004 0 64.036 0 143.022c0 78.996 64.031 143.027 143.027 143.027s143.027-64.031 143.027-143.027C286.054 64.045 222.022.004 143.027.004zm0 259.228c-64.183 0-116.209-52.026-116.209-116.209s52.026-116.21 116.209-116.21 116.209 52.026 116.209 116.209-52.026 116.21-116.209 116.21z" fill="#e2574c"></path>
		</symbol>
	
		<symbol id="alert-valid" viewBox="0 0 286.054 286.054">
			<path d="M143.031 0C64.027 0 .004 64.04.004 143.027c0 78.996 64.031 143.027 143.027 143.027 78.987 0 143.018-64.031 143.018-143.027C286.049 64.049 222.018 0 143.031 0zm0 259.236c-64.183 0-116.209-52.026-116.209-116.209S78.857 26.818 143.031 26.818s116.2 52.026 116.2 116.209-52.025 116.209-116.2 116.209zm56.21-177.049c-6.079-3.629-13.847-1.475-17.342 4.827l-47.959 86.147-26.71-32.512c-4.836-5.569-11.263-8.456-17.333-4.827-6.079 3.638-8.591 12.39-4.657 18.004l37.169 45.241c2.78 3.611 5.953 5.775 9.27 6.392l.027.054.34.018c.751.116 11.979 2.19 16.815-6.463l55.048-98.876c3.493-6.313 1.411-14.367-4.668-18.005z" fill="#3db39e"></path>
		</symbol>
	
		<symbol id="arrow-left" viewBox="0 0 8 12">
			<path d="M7 11L1 6l6-5" fill="transparent"></path>
		</symbol>
	
		<symbol id="arrow-right" viewBox="0 0 49.656 49.656">
			<path d="M14.535 48.242l-2.828-2.828 20.585-20.586L11.707 4.242l2.828-2.828 23.414 23.414z"></path><path d="M14.535 49.656l-4.242-4.242 20.585-20.586L10.293 4.242 14.535 0l24.829 24.828-24.829 24.828zm-1.414-4.242l1.414 1.414 22-22-22-22-1.414 1.414 20.585 20.586-20.585 20.586z"></path>
		</symbol>
	
		<symbol id="arrow-right-blue" viewBox="0 0 8 12">
			<path d="M1 1l6 5-6 5" stroke="#00A8FF" stroke-width="1.5" stroke-linecap="round" stroke-linejoin="round"></path>
		</symbol>
	
		<symbol id="camera-new" viewBox="0 0 40 40">
			<path d="M20 25.334a5.333 5.333 0 1 0 0-10.667 5.333 5.333 0 0 0 0 10.667z" fill="#48C1FF"></path><path d="M15 3.333l-3.05 3.333H6.667A3.343 3.343 0 0 0 3.333 10v20c0 1.833 1.5 3.333 3.334 3.333h26.666c1.834 0 3.334-1.5 3.334-3.333V10c0-1.834-1.5-3.334-3.334-3.334H28.05L25 3.333H15zm5 25A8.336 8.336 0 0 1 11.667 20c0-4.6 3.733-8.334 8.333-8.334S28.333 15.4 28.333 20 24.6 28.333 20 28.333z" fill="#48C1FF"></path>
		</symbol>
	
		<symbol id="cancel" viewBox="0 0 16 16">
			<path d="M1 1l7 7m7 7L8 8m0 0l7-7M8 8l-7 7" fill="transparent"></path>
		</symbol>
	
		<symbol id="close" viewBox="0 0 60 60">
			<title>Монтажная область 2 копия 14</title><path d="M27.55 30.33L4.89 53A1.61 1.61 0 0 0 6 55.74a1.64 1.64 0 0 0 1.14-.47L30 32.44l22.83 22.83a1.64 1.64 0 0 0 1.14.47A1.61 1.61 0 0 0 55.11 53L32.45 30.33 55.13 7.65a1.61 1.61 0 1 0-2.28-2.28L30 28.22 7.15 5.37a1.61 1.61 0 1 0-2.28 2.28zm0 0"></path>
		</symbol>
	
		<symbol id="close-white" viewBox="0 0 18 18">
			<path d="M8.062 8.862L.174 16.715a.589.589 0 0 0 0 .8.558.558 0 0 0 .382.173c.14 0 .278-.07.382-.174l7.923-7.922 7.923 7.922a.558.558 0 0 0 .382.174c.14 0 .278-.07.382-.174.209-.208.209-.556 0-.799L9.765 8.862 17.618.974c.208-.209.208-.556 0-.8-.209-.208-.556-.208-.8 0L8.897 8.133.973.175c-.208-.209-.556-.209-.8 0-.242.208-.208.556 0 .799l7.889 7.888z" fill="#fff"></path>
		</symbol>
	
		<symbol id="currency-rub" viewBox="0 0 12 15">
			<path d="M7.48 9.625c2.66 0 4.52-1.974 4.52-4.812S10.14.063 7.48.063H2.375C2.168.063 2 .24 2 .46v6.86H.375c-.207 0-.375.18-.375.4v1.506c0 .22.168.398.375.398H2v1.063H.375c-.207 0-.375.178-.375.398v1.328c0 .22.168.399.375.399H2v1.726c0 .22.168.399.375.399h1.83c.207 0 .375-.179.375-.399v-1.726h5.045c.207 0 .375-.179.375-.399v-1.328c0-.22-.168-.399-.375-.399H4.58V9.626h2.9zm-2.9-7.28h2.46c1.46 0 2.34.967 2.34 2.468 0 1.522-.88 2.509-2.38 2.509H4.58V2.345z"></path>
		</symbol>
	
		<symbol id="eye" viewBox="0 0 24 16">
			<path d="M15.597 7.999c0 1.906-1.613 3.452-3.604 3.452-1.99 0-3.603-1.546-3.603-3.452 0-1.907 1.613-3.453 3.603-3.453 1.99 0 3.604 1.546 3.604 3.453zM12 .81c-2.06.009-4.196.51-6.218 1.47a15.838 15.838 0 0 0-4.234 3.084C.924 6.025.128 6.98 0 8c.015.883.963 1.973 1.548 2.635 1.19 1.242 2.616 2.26 4.234 3.084A14.577 14.577 0 0 0 12 15.189c2.063-.009 4.198-.516 6.217-1.47a15.845 15.845 0 0 0 4.235-3.084C23.076 9.975 23.872 9.019 24 8c-.015-.883-.963-1.974-1.548-2.636-1.19-1.242-2.616-2.26-4.235-3.082A14.66 14.66 0 0 0 12 .81zm-.002 1.785c3.123 0 5.654 2.42 5.654 5.405 0 2.985-2.531 5.405-5.654 5.405-3.122 0-5.653-2.42-5.653-5.405 0-2.986 2.531-5.405 5.654-5.405z" fill="#00A8FF"></path>
		</symbol>
	
		<symbol id="filter" viewBox="-4 0 393 393.99003">
			<path d="M368.313 0H17.05A16.5 16.5 0 0 0 2.344 8.96a16.732 16.732 0 0 0 1.3 17.415l128.688 181.281c.043.063.09.121.133.184a36.769 36.769 0 0 1 7.219 21.816v147.797a16.429 16.429 0 0 0 16.433 16.535c2.227 0 4.426-.445 6.48-1.297l72.313-27.574c6.48-1.976 10.781-8.09 10.781-15.453V229.656a36.774 36.774 0 0 1 7.215-21.816c.043-.063.09-.121.133-.184L381.723 26.367a16.717 16.717 0 0 0 1.3-17.406A16.502 16.502 0 0 0 368.313 0zM236.78 195.992a56.931 56.931 0 0 0-11.097 33.664v117.578l-66 25.164V229.656a56.909 56.909 0 0 0-11.102-33.664L23.648 20h338.07zm0 0"></path>
		</symbol>
	
		<symbol id="glass" viewBox="0 0 60 60">
			<title>Монтажная область 2 копия 13</title><path d="M53.36 47.55L42.69 36.88l-.18-.15a20.19 20.19 0 1 0-5.78 5.78c.06.05.09.12.15.18l10.67 10.67a4.11 4.11 0 0 0 5.81-5.81zm-27.73-8.72a13.2 13.2 0 1 1 13.2-13.2 13.2 13.2 0 0 1-13.2 13.2zm0 0" fill-rule="evenodd"></path>
		</symbol>
	
		<symbol id="i-arrow-down" viewBox="0 0 16 9">
			<path d="M15.333.99L7.991 8.01.667.99" stroke="#131313" stroke-miterlimit="10" stroke-linecap="round" stroke-linejoin="round"></path>
		</symbol>
	
		<symbol id="i-bell-blue" viewBox="0 0 18 23">
			<g clip-path="url(#a)" fill="#0EA6FC"><path d="M8.997 22.845a2.25 2.25 0 0 1-2.252-2.252h4.504a2.25 2.25 0 0 1-2.252 2.252zM2.247 16.095v-5.628c0-3.46 1.84-6.344 5.063-7.109v-.765c0-.933.754-1.687 1.687-1.687.934 0 1.688.754 1.688 1.687v.765c3.222.765 5.063 3.65 5.063 7.11v5.627L18 18.347v1.123H0v-1.123l2.247-2.252z"></path></g><defs><clipPath id="a"><path fill="#fff" transform="matrix(-1 0 0 1 18 .906)" d="M0 0h18v21.94H0z"></path></clipPath></defs>
		</symbol>
	
		<symbol id="i-bell-white" viewBox="0 0 12 15">
			<g clip-path="url(#a)" fill="#fff"><path d="M5.998 14.627a1.5 1.5 0 0 1-1.501-1.502H7.5a1.5 1.5 0 0 1-1.502 1.502zM1.498 10.126V6.374c0-2.306 1.227-4.23 3.375-4.74v-.509a1.124 1.124 0 1 1 2.25 0v.51c2.149.51 3.376 2.433 3.376 4.74v3.751L12 11.627v.75H0v-.75l1.498-1.501z"></path></g><defs><clipPath id="a"><path fill="#fff" transform="matrix(-1 0 0 1 12 0)" d="M0 0h12v14.627H0z"></path></clipPath></defs>
		</symbol>
	
		<symbol id="i-camera" viewBox="0 0 39 31">
			<path d="M19.5 11.625c-3.218 0-5.85 2.616-5.85 5.813 0 3.196 2.632 5.812 5.85 5.812 3.218 0 5.85-2.616 5.85-5.813 0-3.196-2.633-5.812-5.85-5.812zm15.6-5.813h-4.68c-.634 0-1.316-.484-1.56-1.114l-1.219-3.584C27.446.484 26.764 0 26.13 0H12.87c-.634 0-1.316.484-1.56 1.114l-1.219 3.584c-.195.63-.877 1.114-1.511 1.114H3.9C1.755 5.813 0 7.556 0 9.688v17.438C0 29.256 1.755 31 3.9 31h31.2c2.145 0 3.9-1.744 3.9-3.875V9.687c0-2.13-1.755-3.874-3.9-3.874zM19.5 27.125c-5.363 0-9.75-4.36-9.75-9.688S14.137 7.75 19.5 7.75s9.75 4.36 9.75 9.688-4.387 9.687-9.75 9.687zM33.735 12.4c-.731 0-1.365-.63-1.365-1.356 0-.727.634-1.357 1.365-1.357s1.365.63 1.365 1.357c0 .726-.634 1.356-1.365 1.356z" fill="#fff"></path>
		</symbol>
	
		<symbol id="i-phone" viewBox="0 0 18 17">
			<path d="M6.527 10.503c1.537 1.502 3.283 2.97 3.982 2.27 1.013-1.012 1.607-1.886 3.808-.104 2.2 1.746.524 2.934-.454 3.912-1.118 1.118-5.275.07-9.397-4.017C.379 8.477-.704 4.32.414 3.202c.978-.978 2.13-2.655 3.912-.454 1.782 2.2.908 2.83-.07 3.808-.699.663.734 2.445 2.27 3.947zm2.235-7.231s-.454-.07-.768.244c-.314.35-.35.909 0 1.258.21.21.489.245.489.245.559.104 1.432.279 2.34 1.187.909.908 1.083 1.782 1.188 2.34 0 0 .035.28.245.49.349.35.908.35 1.257 0 .315-.315.245-.769.245-.769a5.882 5.882 0 0 0-1.712-3.318 5.951 5.951 0 0 0-3.284-1.677zm4.332.699c1.677 1.676 2.376 3.563 2.166 5.1 0 0-.07.489.244.803.35.35.909.35 1.258 0 .21-.21.28-.559.28-.559.174-1.327-.036-4.017-2.655-6.602C11.767.093 9.112-.152 7.784.058c0 0-.349.035-.559.28a.886.886 0 0 0 0 1.257c.315.315.804.245.804.245 1.467-.28 3.388.454 5.065 2.13z" fill="#1DABFD"></path>
		</symbol>
	
		<symbol id="i-pin" viewBox="0 0 14 17">
			<path opacity=".67" d="M7.033 0C3.155 0 0 3.045 0 6.787 0 12.433 7.033 17 7.033 17S14 12.052 14 6.787C14 3.045 10.845 0 7.033 0zm0 9.959c-1.84 0-3.352-1.459-3.352-3.235 0-1.776 1.511-3.235 3.352-3.235 1.84 0 3.352 1.459 3.352 3.235-.066 1.84-1.512 3.235-3.352 3.235z" fill="#A3A3A3"></path>
		</symbol>
	
		<symbol id="i-pin-blue" viewBox="0 0 14 17">
			<path d="M7.033 0C3.155 0 0 3.045 0 6.787 0 12.433 7.033 17 7.033 17S14 12.052 14 6.787C14 3.045 10.845 0 7.033 0zm0 9.959c-1.84 0-3.352-1.459-3.352-3.235 0-1.776 1.511-3.235 3.352-3.235 1.84 0 3.352 1.459 3.352 3.235-.066 1.84-1.512 3.235-3.352 3.235z" fill="#1DABFD"></path>
		</symbol>
	
		<symbol id="i-search" viewBox="0 0 19 19">
			<path d="M8.697 16.725a8.028 8.028 0 1 0 0-16.056 8.028 8.028 0 0 0 0 16.056zM14.384 14.384l3.947 3.947" stroke="#5E5E5E" stroke-miterlimit="10" stroke-linecap="round" stroke-linejoin="round"></path>
		</symbol>
	
		<symbol id="i-slick-right" viewBox="0 0 9 16">
			<path d="M.99.667l7.02 7.342-7.02 7.324" stroke="#000" stroke-miterlimit="10" stroke-linecap="round" stroke-linejoin="round"></path>
		</symbol>
	
		<symbol id="i-user" viewBox="0 0 12 15">
			<path d="M6 7.337c1.753 0 3.178-1.641 3.178-3.668C9.178 1.64 8.709 0 6 0 3.29 0 2.822 1.641 2.822 3.669c0 2.027 1.424 3.668 3.178 3.668zM11.991 12.789c-.059-3.528-.545-4.535-4.255-5.173 0 0-.523.634-1.74.634-1.218 0-1.74-.634-1.74-.634-3.67.63-4.184 1.62-4.251 5.057-.005.278-.01.296-.01.261v.373S.88 15 5.996 15c5.117 0 6-1.693 6-1.693v-.274c.005.021 0-.017-.004-.244z" fill="#C1C1C1"></path>
		</symbol>
	
		<symbol id="map-marker" viewBox="0 0 79.536 79.536">
			<path d="M39.768 0C25.122 0 13.256 11.866 13.256 26.512c0 11.364 7.18 20.972 17.217 24.752l2.667 8.099 6.627 20.174 6.629-20.174 2.666-8.099c10.041-3.78 17.218-13.388 17.218-24.752C66.28 11.866 54.401 0 39.768 0zm-.44 34.466a7.955 7.955 0 0 1-7.954-7.954 7.955 7.955 0 1 1 7.954 7.954z" fill="#D80027"></path>
		</symbol>
	
		<symbol id="menu-toggler" viewBox="0 0 24 18">
			<path d="M1 16.475h21.3M1 1h21.3M22.3 8.619H1" stroke="#23A8F9" stroke-width="2" stroke-linecap="round"></path>
		</symbol>
	
		<symbol id="params" viewBox="0 0 24 21">
			<path d="M1 18.208h21.3" stroke="#23A8F9" stroke-width="2" stroke-linecap="round"></path><circle cx="6.479" cy="17.898" r="2.102" fill="#F7F7F9" stroke="#23A8F9" stroke-width="2"></circle><path d="M1 3.733h21.3" stroke="#23A8F9" stroke-width="2" stroke-linecap="round"></path><path d="M8.581 3.423a2.102 2.102 0 1 1-4.204 0 2.102 2.102 0 0 1 4.204 0z" fill="#F7F7F9" stroke="#23A8F9" stroke-width="2"></path><path d="M22.3 10.351H1" stroke="#23A8F9" stroke-width="2" stroke-linecap="round"></path><circle cx="16.819" cy="10.661" r="2.102" transform="rotate(180 16.819 10.661)" fill="#F7F7F9" stroke="#23A8F9" stroke-width="2"></circle>
		</symbol>
	
		<symbol id="phone-new" viewBox="0 0 12 20">
			<path d="M10 0H2a2 2 0 0 0-2 2v16a2 2 0 0 0 2 2h8a2 2 0 0 0 2-2V2a2 2 0 0 0-2-2zM7 19H5v-1h2v1zm3-2H2V3h8v14z" fill="#00A8FF"></path>
		</symbol>
	
		<symbol id="phone-new-nofill" viewBox="0 0 12 20">
			<path d="M10 0H2a2 2 0 0 0-2 2v16a2 2 0 0 0 2 2h8a2 2 0 0 0 2-2V2a2 2 0 0 0-2-2zM7 19H5v-1h2v1zm3-2H2V3h8v14z"></path>
		</symbol>
	
		<symbol id="pin-gray" viewBox="0 0 13 19">
			<path d="M13 6.65c0-.873-.168-1.738-.495-2.545a6.661 6.661 0 0 0-1.409-2.157A6.492 6.492 0 0 0 8.987.506a6.373 6.373 0 0 0-4.974 0 6.492 6.492 0 0 0-2.11 1.442A6.662 6.662 0 0 0 .496 4.105 6.783 6.783 0 0 0 0 6.65c0 1.318.38 2.543 1.026 3.577H1.02C3.21 13.737 6.5 19 6.5 19l5.481-8.773h-.006A6.744 6.744 0 0 0 13 6.65zM6.5 9.5c-.739 0-1.447-.3-1.97-.835a2.884 2.884 0 0 1-.816-2.015c0-.756.294-1.48.816-2.015A2.754 2.754 0 0 1 6.5 3.8c.739 0 1.447.3 1.97.835.522.534.816 1.26.816 2.015 0 .756-.294 1.48-.816 2.015A2.754 2.754 0 0 1 6.5 9.5z" fill="#C3C3C3"></path>
		</symbol>
	
		<symbol id="pin-new" viewBox="0 0 14 20">
			<path d="M14 7A7.002 7.002 0 0 0 2.05 2.05 7 7 0 0 0 0 7c0 1.387.41 2.677 1.105 3.765h-.008C3.457 14.46 7 20 7 20l5.903-9.235h-.007A6.98 6.98 0 0 0 14 7zm-7 3a3 3 0 1 1 0-6 3 3 0 0 1 0 6z" fill="#00A8FF"></path>
		</symbol>
	
		<symbol id="popup-next" viewBox="0 0 23 45">
			<path d="M1 1l21 21.527L1 44" fill="transparent"></path>
		</symbol>
	
		<symbol id="popup-prev" viewBox="0 0 23 45">
			<path d="M22 44L1 22.473 22 1" fill="transparent"></path>
		</symbol>
	
		<symbol id="rub" viewBox="0 0 7 13">
			<path d="M4.025 6.697C5.665 6.697 7 5.195 7 3.348 7 1.502 5.665 0 4.025 0a.44.44 0 0 0-.02 0h-2.43c-.29 0-.525.265-.525.591V7.88H.525c-.29 0-.525.264-.525.59 0 .327.235.592.525.592h.525v3.348c0 .326.235.591.525.591.29 0 .525-.265.525-.59V9.06h1.925c.29 0 .525-.264.525-.59 0-.327-.235-.591-.525-.591H2.1V6.697h1.925zm0-5.515a.5.5 0 0 0 .017 0c1.054.01 1.908.978 1.908 2.166 0 1.195-.864 2.167-1.925 2.167H2.1V1.182h1.925z" fill="#333"></path>
		</symbol>
	
		<symbol id="s-fb" viewBox="0 0 96.124 96.123">
			<path d="M72.089.02L59.624 0C45.62 0 36.57 9.285 36.57 23.656v10.907H24.037a1.96 1.96 0 0 0-1.96 1.961v15.803a1.96 1.96 0 0 0 1.96 1.96H36.57v39.876a1.96 1.96 0 0 0 1.96 1.96h16.352a1.96 1.96 0 0 0 1.96-1.96V54.287h14.654a1.96 1.96 0 0 0 1.96-1.96l.006-15.803a1.963 1.963 0 0 0-1.961-1.961H56.842v-9.246c0-4.444 1.059-6.7 6.848-6.7l8.397-.003a1.96 1.96 0 0 0 1.959-1.96V1.98A1.96 1.96 0 0 0 72.089.02z"></path>
		</symbol>
	
		<symbol id="s-insta" viewBox="0 0 60 60">
			<title>Монтажная область 2 копия 10</title><path d="M40.72 6.08H19.28a13.22 13.22 0 0 0-13.2 13.2v21.44a13.21 13.21 0 0 0 13.2 13.2h21.44a13.22 13.22 0 0 0 13.2-13.2V19.28a13.22 13.22 0 0 0-13.2-13.2zm9 34.64a9 9 0 0 1-9 9H19.28a9 9 0 0 1-9-9V19.28a9 9 0 0 1 9-9h21.44a9 9 0 0 1 9 9zm0 0"></path><path d="M30 17.68A12.33 12.33 0 1 0 42.33 30 12.33 12.33 0 0 0 30 17.68zm0 20.4A8.08 8.08 0 1 1 38.08 30 8.08 8.08 0 0 1 30 38.08zm0 0M42.84 14.08A3.11 3.11 0 1 0 45 15a3.13 3.13 0 0 0-2.2-.91zm0 0"></path>
		</symbol>
	
		<symbol id="s-ok" viewBox="0 0 60 60">
			<title>Монтажная область 2 копия 12</title><path d="M27.46 40.56c-4-.42-7.62-1.41-10.71-3.82a12.69 12.69 0 0 1-1.13-.93 3 3 0 0 1-.42-4.32 3 3 0 0 1 4.05-.91 6.09 6.09 0 0 1 .89.52 17.55 17.55 0 0 0 19.46.18 5.3 5.3 0 0 1 1.9-1 3 3 0 0 1 3.41 1.36 2.9 2.9 0 0 1-.21 3.8 15.83 15.83 0 0 1-5.7 3.68 26.66 26.66 0 0 1-6.43 1.43c.33.36.49.54.7.75 3 3 6 6 8.92 9a3 3 0 0 1 .67 3.48 3.53 3.53 0 0 1-3.31 2.06 3.25 3.25 0 0 1-2.09-1.07c-2.2-2.3-4.46-4.52-6.69-6.77-.64-.67-.95-.54-1.51 0-2.26 2.33-4.56 4.62-6.87 6.89a2.88 2.88 0 0 1-3.47.63 3.52 3.52 0 0 1-2-3.24A3.19 3.19 0 0 1 18 50.1l8.82-8.83c.19-.2.37-.41.66-.71zm0 0" fill-rule="evenodd"></path><path d="M29.9 30.32a13.08 13.08 0 1 1 13.15-12.91A13.09 13.09 0 0 1 29.9 30.32zm6.49-13.09A6.4 6.4 0 1 0 30 23.64a6.36 6.36 0 0 0 6.36-6.41zm0 0" fill-rule="evenodd"></path>
		</symbol>
	
		<symbol id="s-tw" viewBox="0 0 612 612">
			<path d="M612 116.258a250.714 250.714 0 0 1-72.088 19.772c25.929-15.527 45.777-40.155 55.184-69.411-24.322 14.379-51.169 24.82-79.775 30.48-22.907-24.437-55.49-39.658-91.63-39.658-69.334 0-125.551 56.217-125.551 125.513 0 9.828 1.109 19.427 3.251 28.606-104.326-5.24-196.835-55.223-258.75-131.174-10.823 18.51-16.98 40.078-16.98 63.101 0 43.559 22.181 81.993 55.835 104.479a125.556 125.556 0 0 1-56.867-15.756v1.568c0 60.806 43.291 111.554 100.693 123.104-10.517 2.83-21.607 4.398-33.08 4.398-8.107 0-15.947-.803-23.634-2.333 15.985 49.907 62.336 86.199 117.253 87.194-42.947 33.654-97.099 53.655-155.916 53.655-10.134 0-20.116-.612-29.944-1.721 55.567 35.681 121.536 56.485 192.438 56.485 230.948 0 357.188-191.291 357.188-357.188l-.421-16.253c24.666-17.593 46.005-39.697 62.794-64.861z"></path>
		</symbol>
	
		<symbol id="s-vk" viewBox="0 0 60 60">
			<title>Монтажная область 2 копия 11</title><path d="M51 34.38a78.73 78.73 0 0 1 5.69 5.72 16.59 16.59 0 0 1 2 2.94c.78 1.52.07 3.19-1.29 3.28h-8.46a6.53 6.53 0 0 1-5.39-2.19c-1.18-1.2-2.26-2.47-3.39-3.7a8.18 8.18 0 0 0-1.52-1.36 1.77 1.77 0 0 0-2.82.69 8.82 8.82 0 0 0-.89 4c-.09 2-.7 2.52-2.7 2.61a21.64 21.64 0 0 1-12.11-2.61A26.79 26.79 0 0 1 12 36.08 102.21 102.21 0 0 1 1.24 17c-.68-1.51-.19-2.32 1.48-2.35q4.14-.07 8.29 0a2.44 2.44 0 0 1 2.3 1.72 51.49 51.49 0 0 0 5.61 10.41 8.92 8.92 0 0 0 2.13 2.33 1.29 1.29 0 0 0 2.19-.64 7.16 7.16 0 0 0 .48-2.19 32.64 32.64 0 0 0-.13-7.65 3.19 3.19 0 0 0-2.72-2.92c-.81-.15-.69-.45-.3-.91a3 3 0 0 1 2.6-1.3h9.57c1.51.3 1.84 1 2 2.49v10.59c0 .59.3 2.33 1.35 2.72.85.27 1.41-.4 1.91-.94a32.59 32.59 0 0 0 5.39-8.28c.65-1.31 1.21-2.67 1.75-4a2 2 0 0 1 2.16-1.48h9.21a5.42 5.42 0 0 1 .81.05c1.56.27 2 .94 1.5 2.45a22.74 22.74 0 0 1-3.66 6.35c-1.54 2.12-3.18 4.18-4.7 6.31-1.4 2-1.29 2.94.45 4.64zm0 0" fill-rule="evenodd"></path>
		</symbol>
	
		<symbol id="search" viewBox="0 0 512 512">
			<path d="M495 466.2L377.2 348.4c29.2-35.6 46.8-81.2 46.8-130.9C424 103.5 331.5 11 217.5 11 103.4 11 11 103.5 11 217.5S103.4 424 217.5 424c49.7 0 95.2-17.5 130.8-46.7L466.1 495c8 8 20.9 8 28.9 0 8-7.9 8-20.9 0-28.8zm-277.5-83.3C126.2 382.9 52 308.7 52 217.5S126.2 52 217.5 52C308.7 52 383 126.3 383 217.5s-74.3 165.4-165.5 165.4z"></path>
		</symbol>
	
		<symbol id="style-compact" viewBox="0 0 24 20">
			<rect width="24" height="4" rx="1"></rect><rect y="8" width="24" height="4" rx="1"></rect><rect y="16" width="24" height="4" rx="1"></rect>
		</symbol>
	
		<symbol id="style-compact-stroke" viewBox="0 0 24 20">
			<rect x=".5" y=".5" width="23" height="3" rx=".5"></rect><rect x=".5" y="8.5" width="23" height="3" rx=".5"></rect><rect x=".5" y="16.5" width="23" height="3" rx=".5"></rect>
		</symbol>
	
		<symbol id="style-full" viewBox="0 0 24 20">
			<rect width="24" height="8" rx="1"></rect><rect y="12" width="24" height="8" rx="1"></rect>
		</symbol>
	
		<symbol id="style-full-stroke" viewBox="0 0 24 20">
			<rect x=".5" y=".5" width="23" height="7" rx=".5"></rect><rect x=".5" y="12.5" width="23" height="7" rx=".5"></rect>
		</symbol>
	
		<symbol id="style-single" viewBox="0 0 24 20">
			<path d="M1 1h23M1 10h23M1 19h23"></path>
		</symbol>
	
		<symbol id="toggler-down" viewBox="0 0 19 10">
			<path d="M1.282 1l8.205 8 8.205-8" fill="transparent" stroke="#D7D7D7" stroke-width="2" stroke-linecap="round" stroke-linejoin="round"></path>
		</symbol>
	
</svg>
