<svg xmlns="http://www.w3.org/2000/svg" xmlns:xlink="http://www.w3.org/1999/xlink" viewBox="0 0 234.29 69.95"><defs><style>.cls-1{fill:#3758ff;}.cls-2{fill:#afaeae;}.cls-3{fill:url(#Безымянный_градиент_32);}</style><linearGradient id="Безымянный_градиент_32" x1="5.55" y1="51.16" x2="233.33" y2="51.16" gradientUnits="userSpaceOnUse"><stop offset="0" stop-color="#0373fd"/><stop offset="0.22" stop-color="#037bfd"/><stop offset="0.57" stop-color="#0392fd"/><stop offset="1" stop-color="#03b6fd"/></linearGradient></defs><title>Ресурс 2</title><g id="Слой_2" data-name="Слой 2"><g id="Слой_1-2" data-name="Слой 1"><path class="cls-1" d="M28.45,13.84c-.9,0-2.16,0-3.52,0Z"/><path class="cls-1" d="M97.25,51.27h-.77a6.11,6.11,0,0,0,.74,0Z"/><path class="cls-2" d="M163.86,38.26c-2.66,1.38-5.09,2.57-7.34,3.61A8.33,8.33,0,0,1,159,36.8a9.05,9.05,0,0,1,10.77-1.4C167.91,36.25,165.91,37.19,163.86,38.26Z"/><path class="cls-2" d="M200.69,28.27a5.75,5.75,0,0,0-2.69-.8,3.2,3.2,0,0,0-2.85,1.45,57.26,57.26,0,0,0-15.09,2.65v-1c0-5.33,1.43-9.58,4.42-12.83S191.42,13,196.37,13a31.2,31.2,0,0,1,4.32.38h14.19V30.63a52.49,52.49,0,0,0-14.19-1.7Z"/><path class="cls-2" d="M234.29,13.39V35a19.5,19.5,0,0,1-.21,2.9,91.82,91.82,0,0,0-13.91-5.75V13.39Z"/><path class="cls-2" d="M145.2,35.56c-1.32,1.39-2.54,4.39-8,4.66-1.67.11-3.32-1.11-4.39-2.54l22.26-12.2-.31-.67c-.11-.27-.24-.58-.38-.87a19.14,19.14,0,0,0-9.83-9.54h0a18.18,18.18,0,0,0-7.78-1.64,14.73,14.73,0,0,0-2.19.14,18.27,18.27,0,0,0-2.23.38,16.4,16.4,0,0,0-2.27.67,19.56,19.56,0,0,0-12.51,13,16,16,0,0,0-2.86-6.34A15.5,15.5,0,0,0,108.33,16a20.6,20.6,0,0,0-8.43-1.74,19.51,19.51,0,0,0-14,5.47,19.17,19.17,0,0,0-5.68,13.73,104.59,104.59,0,0,1,10.74,4.83c4.39,2.27,8.15,4.05,11.45,5.45V37.37a6.23,6.23,0,0,1-2.81.66A4.79,4.79,0,0,1,96,36.59a4.65,4.65,0,0,1-1.42-3.51,4.84,4.84,0,0,1,1.49-3.56A5,5,0,0,1,99.62,28c3.24,0,4.81,2,4.81,5.89V44.57a57,57,0,0,0,14.09,4c0-.33,0-.66,0-1V40.51a19,19,0,0,0,4,5.64A19.65,19.65,0,0,0,126.26,49h1.08c6.67,0,12.69,0,25.27-5.35A15.83,15.83,0,0,0,154,41.41l0,0-6.45-4.26ZM132.84,26a5.16,5.16,0,0,1,4.31-2.16,5.11,5.11,0,0,1,2.83.73l-8.64,5.13A8.44,8.44,0,0,1,132.84,26ZM80,14.3H73.59V0H59.43V13.84H44.93V29.51A36.11,36.11,0,0,1,53.52,29h3.73s6-.66,16.44,2.32a22.17,22.17,0,0,1-.1-2.25H80Zm-51.52-.46c-.9,0-2.15,0-3.51,0H14.1v-.38c0-.56,0-1.12.07-1.64.07-1.29.1-2.58.1-3.87,0-2.16-.39-4.15-2.44-5.23a8.84,8.84,0,0,0-3.1-.87,22.39,22.39,0,0,0-7.12.28A2.06,2.06,0,0,0,0,3.14v21.2c0,3,0,6,0,9s0,6.05.94,8.92a11.37,11.37,0,0,0,1.89,3.62A122.93,122.93,0,0,0,16.26,40.1a3.71,3.71,0,0,1-.46-.19c-2.41-1.25-2-4.32-1.84-6.55.14-3.14.07-6.28.07-9.38,2.15-.13,7.32-.1,10.91-.07V34c0,.62,0,1.23,0,1.82a84.69,84.69,0,0,1,14.46-5.14V13.84Z"/><path class="cls-3" d="M174.33,43.15a8.22,8.22,0,0,1-2.61,6.23,9.4,9.4,0,0,1-12.82.07,8.3,8.3,0,0,1-2.24-4.14c2.21-1,4.6-2.2,7.2-3.55,3-1.59,5.93-2.9,8.63-4A8.59,8.59,0,0,1,174.33,43.15Zm5.73-8.08V50.93h14.11V33.29c0-.3,0-.58,0-.86A58.82,58.82,0,0,0,180.06,35.07Zm40.1.52c-.1,1.92-1,2.82-2.6,2.82-1.78,0-2.68-1-2.68-3.17V34.13a52.06,52.06,0,0,0-14.19-1.72v1.47c0,5.36,1.3,9.55,3.83,12.52a16.26,16.26,0,0,0,13,5.82,16,16,0,0,0,11.92-5A16.05,16.05,0,0,0,233.33,41,94.55,94.55,0,0,0,220.16,35.59ZM104.42,48.08a10.69,10.69,0,0,1-2,6.85,7.32,7.32,0,0,1-5.89,2.44,11.51,11.51,0,0,1-5.64-1.49V68.59A25.61,25.61,0,0,0,97.91,70a19.45,19.45,0,0,0,15-6.24,21.45,21.45,0,0,0,5.36-11.66A58,58,0,0,1,104.42,48.08ZM57.25,32.45H53.52a35.67,35.67,0,0,0-8.59.54v2.39c0,2.23-.89,3.24-2.74,3.24s-2.75-1-2.75-3.24V34.15a84.07,84.07,0,0,0-14.07,5c.06.38.14.75.22,1.11a7.1,7.1,0,0,1-2.43.63,13.49,13.49,0,0,1-1.56,0l-1.71.87A151.45,151.45,0,0,1,5.55,48.39,12.85,12.85,0,0,0,9.6,50.22c2.79.77,9.45.74,12.31.42,2.36-.24,4.88-.87,6.27-3a4.48,4.48,0,0,0,.49-1c0,.07.09.11.13.18A16.76,16.76,0,0,0,42.12,52.8a16.83,16.83,0,0,0,12.33-5.12,17.38,17.38,0,0,0,5-12.58V32.4A16.54,16.54,0,0,0,57.25,32.45Zm33.67,9.31a97.91,97.91,0,0,0-11.07-4.95h-.13c-2.21-.07-3.78-.6-4.63-1.62A57.49,57.49,0,0,0,59.48,32.4a21.14,21.14,0,0,0,3.2,10.88,18.23,18.23,0,0,0,6.86,6,20.13,20.13,0,0,0,9,2.16l17.91-.21a6.11,6.11,0,0,0,.74,0,17.08,17.08,0,0,0,5.15-1.12v-2.9C99.07,45.81,95.31,44,90.92,41.76Z"/></g></g></svg>