<svg width="76" height="48" viewBox="0 0 76 48" fill="none" xmlns="http://www.w3.org/2000/svg">
<g opacity="0.21">
<path d="M28.9454 6.09138L42.4996 2.46394L41.7818 1.04142C41.3122 0.116781 40.1668 -0.265054 39.2237 0.195394L27.0898 6.09138H28.9454Z" fill="black"/>
<path d="M46.7071 2.56876C46.5392 2.56876 46.3711 2.59122 46.2031 2.63614L33.2942 6.09138H49.1431L48.5474 3.9501C48.3184 3.11531 47.5471 2.56876 46.7071 2.56876Z" fill="black"/>
<path d="M51.1323 7.40159H22.9129C22.3096 7.40159 21.7713 7.67487 21.42 8.10537C21.2596 8.30377 21.1375 8.53212 21.0687 8.78294C21.0267 8.94016 21 9.10488 21 9.27333V30.1283C21 31.1615 21.8552 32 22.909 32H51.1285C52.1823 32 53.0375 31.1615 53.0375 30.1283V24.9061H41.7093C39.9186 24.9061 38.4639 23.4798 38.4639 21.7241V17.5614C38.4639 16.7004 38.8151 15.918 39.3841 15.3453C39.888 14.8361 40.5638 14.4917 41.3198 14.4056C41.4458 14.3907 41.5756 14.3832 41.7054 14.3832H53.0375V9.27333C53.0413 8.24013 52.1861 7.40159 51.1323 7.40159Z" fill="black"/>
<path d="M54.3777 16.1726C54.1867 16.0004 53.9615 15.8693 53.7095 15.7832C53.5147 15.7196 53.3086 15.6822 53.091 15.6822H41.7093C40.6554 15.6822 39.8002 16.5207 39.8002 17.5539V21.7204C39.8002 22.7536 40.6554 23.5921 41.7093 23.5921H53.091C53.3086 23.5921 53.5148 23.5547 53.7095 23.4911C53.9615 23.4087 54.1867 23.274 54.3777 23.1018C54.7595 22.7611 55 22.267 55 21.7204V17.5539C55 17.0074 54.7595 16.5132 54.3777 16.1726ZM45.6953 20.0096C45.6953 20.5262 45.2677 20.9455 44.7408 20.9455H44.107C43.5801 20.9455 43.1525 20.5262 43.1525 20.0096V19.3882C43.1525 19.0887 43.2938 18.8229 43.519 18.6545C43.6832 18.5309 43.8856 18.4523 44.107 18.4523H44.7408C45.2677 18.4523 45.6953 18.8716 45.6953 19.3882V20.0096Z" fill="black"/>
</g>
<path d="M16.0917 47H17.1967V37.9H16.0917V41.839H11.0867V37.9H9.9817V47H11.0867V42.879H16.0917V47ZM19.8051 42.385C20.2731 42.138 20.7021 41.956 21.4171 41.956C22.5741 41.956 22.7431 42.71 22.7431 43.802C22.3531 43.516 21.7421 43.425 21.2871 43.425C20.0261 43.425 19.0771 44.088 19.0771 45.284C19.0771 46.415 19.8051 47.091 20.8711 47.091C21.8331 47.091 22.3921 46.688 22.7431 46.246V47H23.7311V43.412C23.7311 41.891 23.1461 41.02 21.4821 41.02C20.7541 41.02 20.0521 41.228 19.5321 41.553L19.8051 42.385ZM21.2351 46.155C20.5591 46.155 20.1821 45.791 20.1821 45.232C20.1821 44.556 20.8061 44.27 21.4301 44.27C21.9371 44.27 22.3791 44.4 22.7431 44.66V45.401C22.4441 45.752 22.0021 46.155 21.2351 46.155ZM29.4766 47H30.5166V41.15H26.4476L26.3436 42.97C26.2006 45.674 25.3686 46.103 24.9266 46.064L25.0046 47.078C26.2136 47.078 27.0976 46.506 27.3576 43.178L27.4226 42.19H29.4766V47ZM33.4316 47L36.8116 42.645V47H37.8516V41.15H36.8116L33.4316 45.505V41.15H32.3916V47H33.4316ZM44.1362 41.15H43.0962V43.815C42.8362 43.997 42.3422 44.179 41.7572 44.179C40.9642 44.179 40.4962 43.737 40.4962 42.801V41.15H39.3912V42.918C39.3912 44.426 40.0672 45.154 41.4712 45.154C42.1212 45.154 42.7062 44.972 43.0962 44.725V47H44.1362V41.15ZM50.3036 47H51.3436V41.15H50.3036V43.555H47.0536V41.15H46.0136V47H47.0536V44.53H50.3036V47ZM53.2246 47H55.1096C56.9426 47 57.5406 45.947 57.5406 44.92C57.5406 43.88 57.0206 42.905 55.2266 42.905H54.2646V41.15H53.2246V47ZM58.6586 47H59.6986V41.15H58.6586V47ZM55.0316 43.88C56.0326 43.88 56.4356 44.257 56.4356 44.959C56.4356 45.648 56.0586 46.025 55.0186 46.025H54.2646V43.88H55.0316ZM66.1804 45.544C65.8034 45.895 65.1404 46.155 64.3864 46.155C63.2424 46.155 62.4364 45.505 62.3454 44.4H66.8434C66.8824 44.218 66.9084 43.984 66.9084 43.698C66.9084 42.086 65.6994 41.02 64.1914 41.02C62.2674 41.02 61.1754 42.372 61.1754 44.075C61.1754 45.921 62.4104 47.13 64.3084 47.13C65.0884 47.13 65.9334 46.883 66.5054 46.363L66.1804 45.544ZM64.1394 41.995C65.1534 41.995 65.7774 42.593 65.8294 43.555H62.2804C62.3974 42.658 63.0734 41.995 64.1394 41.995Z" fill="black"/>
</svg>
