<svg width="78" height="36" viewBox="0 0 78 36" fill="none" xmlns="http://www.w3.org/2000/svg">
<path d="M38.2188 19.8678H39.4418V22.609H40.3255L41.9112 19.8678H43.2484L41.3451 23.085V23.1075L43.3617 26.6183H41.9795L40.348 23.673H39.4651V26.6183H38.2413V19.8671H38.2188V19.8678ZM46.1029 21.6577C47.5746 21.6577 48.7758 22.7224 48.7758 24.1947C48.7758 25.6903 47.5978 26.7324 46.1255 26.7324C44.6524 26.7324 43.4744 25.6903 43.4744 24.1947C43.4519 22.6999 44.6299 21.6577 46.1029 21.6577ZM49.7271 21.7704H50.8826V25.5769H52.4007V21.7711H53.5555V25.5769H55.0736V21.7711H56.229V26.6183H49.7722V21.7704H49.7271ZM59.6504 21.6577C61.0319 21.6577 61.8022 22.6773 61.8022 23.9462C61.7985 24.1055 61.7834 24.2643 61.7572 24.4215H58.4266C58.4949 25.2594 59.1519 25.7128 59.8772 25.7128C60.375 25.7128 60.8735 25.4861 61.2587 25.1918L61.7347 26.0529C61.2361 26.4824 60.4883 26.7549 59.7863 26.7549C58.1774 26.7549 57.181 25.5995 57.181 24.2173C57.181 22.6999 58.1999 21.6577 59.6504 21.6577ZM62.3684 25.5995C62.9577 25.5086 63.388 25.0108 63.388 23.2885V21.7711H66.9227V26.6183H65.7214V22.7442H64.5434V23.2878C64.5434 25.3946 63.9773 26.6183 62.3684 26.6634V25.5988V25.5995ZM70.3659 21.6577C71.7474 21.6577 72.5177 22.6773 72.5177 23.9462C72.5139 24.1055 72.4989 24.2643 72.4727 24.4215H69.1421C69.2104 25.2594 69.8674 25.7128 70.5926 25.7128C71.0905 25.7128 71.589 25.4861 71.9741 25.1918L72.4501 26.0529C71.9516 26.4824 71.2038 26.7549 70.5018 26.7549C68.8936 26.7549 67.8965 25.5995 67.8965 24.2173C67.8965 22.6999 68.9161 21.6577 70.3659 21.6577ZM73.5148 21.7704H74.7153V23.6286H75.3047L76.4827 21.7711H77.8191L76.2785 24.0814V24.1046L78.0001 26.6183H76.5961L75.3272 24.6482H74.6935V26.6183H73.4915V21.7704H73.5141H73.5148ZM46.1029 25.6903C46.8958 25.6903 47.5527 25.0784 47.5527 24.1722C47.5527 23.2885 46.8958 22.6541 46.1022 22.6541C45.3101 22.6541 44.6756 23.2667 44.6756 24.1722C44.6756 25.0784 45.3094 25.6903 46.1029 25.6903ZM60.5792 23.5835C60.5792 22.9491 60.1482 22.564 59.6047 22.564C58.9935 22.564 58.54 22.9716 58.4266 23.5835H60.5792ZM71.2947 23.5835C71.2947 22.9491 70.8644 22.564 70.3208 22.564C69.7082 22.564 69.2555 22.9716 69.1421 23.5835H71.2947Z" fill="#2D3540"/>
<path d="M55.1413 5.16481V16.6055C55.1423 16.6474 55.1347 16.6891 55.1191 16.7279C55.1035 16.7668 55.0802 16.8021 55.0506 16.8317C55.021 16.8614 54.9857 16.8847 54.9468 16.9002C54.9079 16.9158 54.8663 16.9234 54.8244 16.9224H52.4909C52.4491 16.9234 52.4074 16.9158 52.3686 16.9002C52.3297 16.8847 52.2944 16.8614 52.2647 16.8317C52.2351 16.8021 52.2118 16.7668 52.1962 16.7279C52.1807 16.6891 52.1731 16.6474 52.1741 16.6055V5.16481C52.1731 5.12293 52.1807 5.0813 52.1962 5.04242C52.2118 5.00354 52.2351 4.96823 52.2647 4.93861C52.2944 4.90899 52.3297 4.88569 52.3686 4.87011C52.4074 4.85452 52.4491 4.84699 52.4909 4.84795H54.8244C54.8663 4.84699 54.9079 4.85452 54.9468 4.87011C54.9857 4.88569 55.021 4.90899 55.0506 4.93861C55.0802 4.96823 55.1035 5.00354 55.1191 5.04242C55.1347 5.0813 55.1423 5.12293 55.1413 5.16481ZM73.3558 4.84795C73.4466 4.84795 73.56 4.89301 73.6726 4.98385C73.7409 5.05144 73.7409 5.16481 73.7184 5.25564L69.8668 16.7189C69.8434 16.7782 69.803 16.8293 69.7506 16.8656C69.6982 16.902 69.6362 16.922 69.5725 16.9231H67.4882C67.3523 16.9231 67.239 16.8548 67.1939 16.7189L64.9499 10.036L62.7072 16.7182C62.6838 16.7775 62.6434 16.8286 62.591 16.8649C62.5386 16.9013 62.4766 16.9213 62.4129 16.9224H60.3286C60.1927 16.9224 60.0794 16.8548 60.0343 16.7182L56.1827 5.25494C56.1602 5.16481 56.1602 5.07398 56.2278 4.98385C56.2735 4.89301 56.3869 4.84795 56.477 4.84795H59.0823C59.2182 4.84795 59.3316 4.93808 59.3774 5.07398L61.4383 11.8477L63.7042 5.07398C63.7276 5.01466 63.7681 4.9636 63.8204 4.92725C63.8728 4.89091 63.9348 4.87091 63.9986 4.86978H65.8335C65.9694 4.86978 66.0828 4.93808 66.1279 5.07398L68.3938 11.8477L70.4555 5.07398C70.4739 5.00981 70.5125 4.95324 70.5655 4.91257C70.6184 4.8719 70.683 4.84925 70.7498 4.84795H73.3551H73.3558ZM77.2975 4.84795C77.4559 4.84795 77.5918 4.98385 77.6144 5.16481V16.6055C77.6153 16.6474 77.6078 16.6891 77.5922 16.7279C77.5766 16.7668 77.5533 16.8021 77.5237 16.8317C77.4941 16.8614 77.4588 16.8847 77.4199 16.9002C77.381 16.9158 77.3394 16.9234 77.2975 16.9224H74.964C74.9221 16.9234 74.8805 16.9158 74.8416 16.9002C74.8028 16.8847 74.7674 16.8614 74.7378 16.8317C74.7082 16.8021 74.6849 16.7668 74.6693 16.7279C74.6537 16.6891 74.6462 16.6474 74.6472 16.6055V5.16481C74.6462 5.12293 74.6537 5.0813 74.6693 5.04242C74.6849 5.00354 74.7082 4.96823 74.7378 4.93861C74.7674 4.90899 74.8028 4.88569 74.8416 4.87011C74.8805 4.85452 74.9221 4.84699 74.964 4.84795H77.2975ZM50.8144 16.5154C50.9503 16.6738 50.8369 16.8999 50.6327 16.8999H47.7782C47.722 16.9014 47.6662 16.8899 47.6151 16.8663C47.5641 16.8428 47.5192 16.8077 47.4839 16.764L47.0086 16.1753C46.0115 16.809 44.8328 17.1949 43.5872 17.1949C40.0989 17.1949 37.2669 14.3629 37.2669 10.8739C37.2669 7.38494 40.0989 4.55292 43.5872 4.55292C47.0762 4.55292 49.9082 7.38494 49.9082 10.8739C49.9082 12.1202 49.5456 13.2982 48.9111 14.2946L50.8144 16.5147V16.5154ZM26.9584 22.0654C27.5478 22.2921 27.7745 23.1751 27.8196 23.5603C27.9104 24.263 27.7069 24.5348 27.4802 24.5348C27.2534 24.5348 26.9359 24.263 26.5965 23.7194C26.2564 23.1751 26.1205 22.5639 26.3022 22.2464C26.4148 22.0422 26.6641 21.952 26.9591 22.0654H26.9584ZM23.5152 24.6256C23.8778 24.6256 24.2855 24.784 24.6481 25.1009C25.3502 25.6903 25.5544 26.3697 25.1917 26.8683C24.9875 27.1175 24.6481 27.276 24.263 27.276C23.8778 27.276 23.4701 27.1401 23.1983 26.8908C22.5639 26.3472 22.3829 25.4403 22.7899 24.9425C22.9491 24.7383 23.1983 24.6256 23.5152 24.6256ZM15.5867 31.1726C6.97724 31.1726 0 24.1947 0 15.586C0 6.97725 6.97795 0 15.586 0C24.1947 0 31.1726 6.97795 31.1726 15.586C31.1726 18.5081 30.3572 21.25 28.9757 23.5835C28.93 23.6511 28.8166 23.6286 28.7941 23.5377C28.2505 19.7094 25.917 17.6019 22.5188 16.9682C22.2238 16.9224 22.1788 16.7414 22.5639 16.6964C23.606 16.6055 25.0784 16.6281 25.8487 16.764C25.8938 16.3788 25.917 15.9711 25.917 15.5634C25.917 9.87686 21.2951 5.25494 15.6085 5.25494C9.92263 5.25494 5.30071 9.87686 5.30071 15.5634C5.30071 21.25 9.92263 25.8719 15.6092 25.8719H16.0845C15.923 24.9522 15.8546 24.0185 15.8803 23.085C15.9035 22.4505 16.0394 22.3597 16.3112 22.8582C17.7385 25.3276 19.7777 27.5478 23.7645 28.4314C27.0267 29.1567 30.2889 29.9946 33.8005 34.4574C34.1173 34.8426 33.642 35.2503 33.2794 34.9334C29.7003 31.7613 26.438 30.7192 23.4701 30.7192C20.1396 30.7424 17.8744 31.1726 15.586 31.1726H15.5867ZM45.1504 13.9777L43.904 12.4596C43.7688 12.3012 43.8822 12.0519 44.0857 12.0519H46.7135C46.8494 11.6893 46.9177 11.2816 46.9177 10.8739C46.9177 8.99388 45.513 7.36241 43.5872 7.36241C41.6621 7.36241 40.2566 8.99388 40.2566 10.8739C40.2566 12.7539 41.6621 14.3629 43.5872 14.3629C44.1308 14.3854 44.6751 14.227 45.1504 13.9777Z" fill="#FF8C00"/>
</svg>
