<svg width="83" height="39" viewBox="0 0 83 39" fill="none" xmlns="http://www.w3.org/2000/svg">
<g clip-path="url(#clip0)">
<path d="M0 19.8641C0 17.8447 0.178251 16.5631 4.62081 13.4304C8.2818 10.8414 20.0601 2 20.0601 2V16.7573H29.0137V38H2.79716C1.26147 38 0 36.8091 0 35.3592V19.8641Z" fill="#FFCF01"/>
<path d="M20.0603 16.7573V25.3139L3.60645 35.89L24.4069 29.5081V16.7573H20.0603Z" fill="#D3AB07"/>
<path d="M12.5326 16.3172C13.4925 15.2298 14.9047 14.8544 15.6726 15.4628C16.4404 16.0712 16.2896 17.4434 15.3298 18.5308C14.37 19.6181 12.9577 19.9935 12.1899 19.3851C11.422 18.7767 11.5728 17.4045 12.5326 16.3172Z" fill="black"/>
</g>
<path d="M41.4665 9.50737L38.889 15.4023H37L39.8423 9.09401C38.5006 8.41106 37.6179 7.153 37.6179 4.85253C37.6179 1.61751 39.6304 0 42.0137 0H44.45V15.4023H42.8258V9.50737H41.4665ZM42.8258 1.40184H41.9608C40.6544 1.40184 39.3833 2.28249 39.3833 4.85253C39.3833 7.33272 40.5485 8.1235 41.9608 8.1235H42.8258V1.40184Z" fill="#FF0000"/>
<path d="M52.3059 4.547V15.4023H50.6817V10.5318H48.2278V15.4023H46.5684V4.547H48.2278V9.1659H50.6817V4.547H52.3059ZM60.7975 17.541H59.3145V15.4023H54.7422V17.541H53.2592V14.0364H53.9124C54.8834 11.7359 54.9893 8.37512 54.9893 5.48157V4.547H59.9501V14.0364H60.7975V17.541ZM58.3259 5.9129H56.4899V6.1106C56.4899 8.39309 56.384 11.7359 55.5013 14.0364H58.3436V5.9129H58.3259ZM65.3522 15.5641C63.1455 15.5641 61.8037 13.7848 61.8037 10.4419C61.8037 6.9553 62.7571 4.40323 65.0168 4.40323C66.7998 4.40323 67.965 5.76912 67.965 9.45346V10.388H63.5162C63.5162 12.8502 64.187 14.1442 65.5111 14.1442C66.4467 14.1442 67.1882 13.7129 67.6119 13.4074L68.0003 14.7014C67.2941 15.2226 66.4114 15.5641 65.3522 15.5641ZM63.5338 8.98618H66.2702C66.2702 7.13502 65.9701 5.76912 65.0168 5.76912C63.9928 5.76912 63.6398 7.04516 63.5338 8.98618ZM71.3016 9.99263V15.4023H69.6421V4.547H71.3016V9.56129L73.8614 4.547H75.5385L72.8904 9.65115L75.9093 15.4023H74.1086L71.3016 9.99263ZM76.1211 9.97465C76.1211 6.57788 77.4099 4.38525 79.9167 4.38525C80.8701 4.38525 81.4173 4.63687 81.894 4.9424L81.6645 6.54194C81.2231 6.14654 80.5876 5.7871 79.8991 5.7871C78.7163 5.7871 77.8689 7.153 77.8689 9.88479C77.8689 12.5986 78.5044 14.1442 79.8461 14.1442C80.6582 14.1442 81.2584 13.8207 81.6468 13.4793L82.0352 14.7373C81.4703 15.2406 80.7818 15.5641 79.8108 15.5641C77.4981 15.5641 76.1211 13.677 76.1211 9.97465Z" fill="black"/>
<path d="M44.45 36.43H37.971L37.8297 39H37V35.5493H37.4413C38.1828 34.9203 38.5359 33.1949 38.7477 31.0023C38.9596 28.7198 39.0302 25.3051 39.0832 21.0276H44.3794V35.5493H45.4209V39H44.5912L44.45 36.43ZM43.3378 21.9083H40.0541C39.9835 25.8083 39.8776 28.7737 39.7187 31.0023C39.5245 33.3028 39.1891 34.8304 38.6242 35.5493H43.3378V21.9083Z" fill="black"/>
<path d="M49.817 35.765C51.2293 35.765 51.9708 34.5968 51.9708 34.5968L52.2886 35.4235C52.2886 35.4235 51.4765 36.6456 49.7993 36.6456C47.5396 36.6456 46.498 34.5608 46.498 31.0023C46.498 27.4438 47.8044 25.359 49.6051 25.359C51.4412 25.359 52.624 27.318 52.2886 31.182H47.4514C47.5043 34.1475 48.2634 35.765 49.817 35.765ZM47.4867 30.3733H51.3529C51.5294 27.4797 50.682 26.1857 49.5875 26.1857C48.4753 26.2037 47.5573 27.6594 47.4867 30.3733Z" fill="black"/>
<path d="M58.8031 31.2H55.1664V36.43H54.1777V25.5747H55.1664V30.3733H58.8031V25.5747H59.7917V36.43H58.8031V31.2Z" fill="black"/>
<path d="M62.1573 25.5747H63.1459V29.6005H63.9227C65.9529 29.6005 67.2593 30.7148 67.2593 32.9793C67.2593 35.2797 65.8646 36.43 63.8521 36.43H62.1396V25.5747H62.1573ZM63.1459 30.4092V35.6392H63.7815C65.2821 35.6392 66.306 34.8843 66.306 33.0152C66.306 31.182 65.4233 30.4092 63.8874 30.4092H63.1459Z" fill="black"/>
<path d="M69.9602 26.4194V36.4479H68.9893V25.5926H73.491V26.4373H69.9602V26.4194Z" fill="black"/>
<path d="M80.0053 28.8636C80.0053 28.3065 80.0406 27.8212 80.0936 27.3719H80.023C79.8817 27.8392 79.6875 28.3065 79.458 28.7738L75.9802 36.43H75.1328V25.5747H76.0685V33.1231C76.0685 33.6982 76.0332 34.1834 75.9802 34.6507H76.0508C76.1921 34.1475 76.4039 33.6802 76.6157 33.2129L80.0936 25.5926H80.9586V36.4479H80.0053V28.8636Z" fill="black"/>
<defs>
<clipPath id="clip0">
<rect y="2" width="29" height="36" fill="white"/>
</clipPath>
</defs>
</svg>
