<svg width="57" height="52" viewBox="0 0 57 52" fill="none" xmlns="http://www.w3.org/2000/svg">
<path d="M39.9889 13.9986C39.9889 21.7315 33.7245 27.9972 25.9944 27.9972C18.2643 27.9972 12 21.7301 12 13.9986C12 6.26709 18.2659 0 25.9944 0C33.723 0 39.9889 6.26709 39.9889 13.9986Z" fill="#E2574C"/>
<path d="M42.8009 0C39.6624 0 36.773 1.04572 34.4381 2.79139L34.4493 2.79277C34.9085 3.23649 35.4152 3.54878 35.8057 4.05958L32.894 4.10579C32.4377 4.5664 32.0219 5.06753 31.6299 5.58831H36.7646C37.1552 6.05721 37.5163 6.46468 37.8439 6.98255H30.6991C30.4373 7.43333 30.1952 7.89669 29.9838 8.37817H38.6573C38.8841 8.85827 39.0871 9.22092 39.2593 9.72912H29.47C29.3147 10.2121 29.1817 10.7062 29.0808 11.2101H39.6694C39.7731 11.6945 39.8527 12.1424 39.9074 12.5988H28.8708C28.8246 13.0594 28.8008 13.5269 28.8008 13.9987H39.9871C39.9871 14.4943 39.9521 14.9534 39.9017 15.3987H28.8708C28.9184 15.8732 28.9884 16.3394 29.0808 16.7986H39.6525C39.5434 17.2521 39.4173 17.7084 39.2592 18.1816H29.4378C29.5861 18.6603 29.7668 19.1251 29.9641 19.5786H38.6573C38.4166 20.0882 38.1436 20.4955 37.8427 20.9728H30.674C30.9569 21.4628 31.269 21.9303 31.6077 22.3783L36.7647 22.4552C36.3252 22.9829 35.7611 23.3007 35.2472 23.7627C35.2751 23.7851 34.4255 23.7599 32.7526 23.7334C35.2976 26.3596 38.8546 27.9973 42.8007 27.9973C50.5322 27.9973 56.7993 21.7301 56.7993 13.9987C56.7993 6.26739 50.5336 0 42.8009 0Z" fill="#F4B459"/>
<path d="M21.2139 51.3602L24.0285 35.5278H28.4264L25.6997 51.3602H21.2139Z" fill="#3C58BF"/>
<path d="M21.2139 51.3602L24.8201 35.5278H28.4264L25.6997 51.3602H21.2139Z" fill="#293688"/>
<path d="M41.6197 35.7037C40.7401 35.3518 39.3328 35 37.5736 35C33.1757 35 30.0092 37.1989 30.0092 40.3654C30.0092 42.7403 32.2082 43.9717 33.9673 44.7633C35.7265 45.555 36.2542 46.0827 36.2542 46.7864C36.2542 47.8419 34.8469 48.3696 33.6155 48.3696C31.8563 48.3696 30.8888 48.1057 29.3935 47.49L28.7778 47.2262L28.1621 50.8324C29.2176 51.2722 31.1527 51.712 33.1757 51.712C37.8375 51.712 40.916 49.5131 40.916 46.1707C40.916 44.3235 39.7726 42.9162 37.1338 41.7728C35.5506 40.9811 34.583 40.5414 34.583 39.7497C34.583 39.0461 35.3747 38.3424 37.1338 38.3424C38.6291 38.3424 39.6846 38.6063 40.4762 38.9581L40.916 39.134L41.6197 35.7037Z" fill="#3C58BF"/>
<path d="M41.6197 35.7037C40.7401 35.3518 39.3328 35 37.5736 35C33.1757 35 30.8008 37.1989 30.8008 40.3654C30.8008 42.7403 32.2082 43.9717 33.9673 44.7633C35.7265 45.555 36.2542 46.0827 36.2542 46.7864C36.2542 47.8419 34.8469 48.3696 33.6155 48.3696C31.8563 48.3696 30.8888 48.1057 29.3935 47.49L28.7778 47.2262L28.1621 50.8324C29.2176 51.2722 31.1527 51.712 33.1757 51.712C37.8375 51.712 40.916 49.5131 40.916 46.1707C40.916 44.3235 39.7726 42.9162 37.1338 41.7728C35.5506 40.9811 34.583 40.5414 34.583 39.7497C34.583 39.0461 35.3747 38.3424 37.1338 38.3424C38.6291 38.3424 39.6846 38.6063 40.4762 38.9581L40.916 39.134L41.6197 35.7037Z" fill="#293688"/>
<path d="M49.1845 35.5278C48.129 35.5278 47.3374 35.6157 46.8976 36.6712L40.3008 51.3602H45.0505L45.9301 48.7215H51.5594L52.0872 51.3602H56.3091L52.6149 35.5278H49.1845ZM47.1615 46.0827C47.4254 45.2911 48.9207 41.421 48.9207 41.421C48.9207 41.421 49.2725 40.4534 49.5364 39.8377L49.8002 41.333C49.8002 41.333 50.6798 45.2911 50.8557 46.1707H47.1615V46.0827Z" fill="#3C58BF"/>
<path d="M50.24 35.5278C49.1845 35.5278 48.3929 35.6157 47.9531 36.6712L40.3008 51.3602H45.0505L45.9301 48.7215H51.5594L52.0872 51.3602H56.3091L52.6149 35.5278H50.24ZM47.1615 46.0827C47.5133 45.2032 48.9207 41.421 48.9207 41.421C48.9207 41.421 49.2725 40.4534 49.5364 39.8377L49.8002 41.333C49.8002 41.333 50.6798 45.2911 50.8557 46.1707H47.1615V46.0827Z" fill="#293688"/>
<path d="M13.1213 46.6105L12.6815 44.3236C11.8899 41.6848 9.33907 38.7822 6.52441 37.3749L10.4825 51.4482H15.2323L22.3569 35.6157H17.6071L13.1213 46.6105Z" fill="#3C58BF"/>
<path d="M13.1213 46.6105L12.6815 44.3236C11.8899 41.6848 9.33907 38.7822 6.52441 37.3749L10.4825 51.4482H15.2323L22.3569 35.6157H18.4867L13.1213 46.6105Z" fill="#293688"/>
<path d="M0.895508 35.5278L1.68713 35.7037C7.31644 37.0231 11.1866 40.3655 12.6819 44.3236L11.0986 36.8471C10.8348 35.7916 10.0431 35.5278 9.0756 35.5278H0.895508Z" fill="#FFBC00"/>
<path d="M0.895508 35.5278C6.52482 36.8471 11.1866 40.2775 12.6819 44.2356L11.1866 37.9906C10.9227 36.9351 10.0431 36.3194 9.0756 36.3194L0.895508 35.5278Z" fill="#F7981D"/>
<path d="M0.895508 35.5278C6.52482 36.8471 11.1866 40.2775 12.6819 44.2356L11.6264 40.8053C11.3625 39.7498 11.0107 38.6943 9.77927 38.2545L0.895508 35.5278Z" fill="#ED7C00"/>
<path d="M17.5191 46.0827L14.5285 43.0921L13.1212 46.4345L12.7694 44.2356C11.9777 41.5968 9.42696 38.6942 6.6123 37.2869L10.5704 51.3602H15.3201L17.5191 46.0827Z" fill="#051244"/>
<path d="M25.6987 51.3602L21.9166 47.4901L21.2129 51.3602H25.6987Z" fill="#051244"/>
<path d="M35.8145 45.9068C36.1663 46.2586 36.3422 46.5225 36.2542 46.8743C36.2542 47.9298 34.8469 48.4576 33.6155 48.4576C31.8563 48.4576 30.8888 48.1937 29.3935 47.578L28.7778 47.3141L28.1621 50.9204C29.2176 51.3602 31.1527 51.8 33.1757 51.8C35.9904 51.8 38.2773 51.0084 39.5966 49.601L35.8145 45.9068Z" fill="#051244"/>
<path d="M40.916 51.3602H45.05L45.9296 48.7215H51.5589L52.0867 51.3602H56.3087L54.8134 44.9393L49.5359 39.8377L49.7998 41.245C49.7998 41.245 50.6794 45.2031 50.8553 46.0827H47.161C47.5129 45.2031 48.9202 41.421 48.9202 41.421C48.9202 41.421 49.272 40.4534 49.5359 39.8377" fill="#051244"/>
</svg>
