<svg width="40" height="40" viewBox="0 0 40 40" fill="none" xmlns="http://www.w3.org/2000/svg">
<path d="M20.0001 25.3337C22.9456 25.3337 25.3334 22.9458 25.3334 20.0003C25.3334 17.0548 22.9456 14.667 20.0001 14.667C17.0546 14.667 14.6667 17.0548 14.6667 20.0003C14.6667 22.9458 17.0546 25.3337 20.0001 25.3337Z" fill="#48C1FF"/>
<path d="M14.9999 3.33301L11.9499 6.66634H6.66659C4.83325 6.66634 3.33325 8.16634 3.33325 9.99967V29.9997C3.33325 31.833 4.83325 33.333 6.66659 33.333H33.3333C35.1666 33.333 36.6666 31.833 36.6666 29.9997V9.99967C36.6666 8.16634 35.1666 6.66634 33.3333 6.66634H28.0499L24.9999 3.33301H14.9999ZM19.9999 28.333C15.3999 28.333 11.6666 24.5997 11.6666 19.9997C11.6666 15.3997 15.3999 11.6663 19.9999 11.6663C24.5999 11.6663 28.3333 15.3997 28.3333 19.9997C28.3333 24.5997 24.5999 28.333 19.9999 28.333Z" fill="#48C1FF"/>
</svg>
