<svg width="18" height="18" viewBox="0 0 18 18" fill="none" xmlns="http://www.w3.org/2000/svg">
<path d="M8.06195 8.86185L0.173924 16.7151C-0.0345703 16.9236 -0.0345703 17.3059 0.173924 17.5144C0.278171 17.6186 0.417167 17.6881 0.556163 17.6881C0.695159 17.6881 0.834155 17.6186 0.938403 17.5144L8.86118 9.59158L16.784 17.5144C16.8882 17.6186 17.0272 17.6881 17.1662 17.6881C17.3052 17.6881 17.4442 17.6186 17.5484 17.5144C17.7569 17.3059 17.7569 16.9584 17.5484 16.7151L9.76466 8.86185L17.6179 0.973817C17.8264 0.765323 17.8264 0.417833 17.6179 0.17459C17.4094 -0.0339046 17.062 -0.0339046 16.8187 0.17459L8.89593 8.13212L0.973152 0.17459C0.764657 -0.0339046 0.417167 -0.0339046 0.173924 0.17459C-0.0693194 0.383084 -0.0345703 0.730574 0.173924 0.973817L8.06195 8.86185Z" fill="white"/>
</svg>
