<svg width="12" height="15" viewBox="0 0 12 15" fill="none" xmlns="http://www.w3.org/2000/svg">
<path d="M7.48 9.625C10.14 9.625 12 7.65081 12 4.8129C12 1.975 10.14 0.0625 7.48 0.0625H2.375C2.16791 0.0625 2 0.2409 2 0.460938V7.32177H0.375C0.167906 7.32177 0 7.50017 0 7.7202V9.22656C0 9.4466 0.167906 9.625 0.375 9.625H2V10.6875H0.375C0.167906 10.6875 0 10.8659 0 11.0859V12.4141C0 12.6341 0.167906 12.8125 0.375 12.8125H2V14.5391C2 14.7591 2.16791 14.9375 2.375 14.9375H4.205C4.41209 14.9375 4.58 14.7591 4.58 14.5391V12.8125H9.625C9.83209 12.8125 10 12.6341 10 12.4141V11.0859C10 10.8659 9.83209 10.6875 9.625 10.6875H4.58V9.625H7.48ZM4.58 2.34515H7.04C8.5 2.34515 9.38 3.31169 9.38 4.8129C9.38 6.33467 8.5 7.32177 7 7.32177H4.58V2.34515Z" />
</svg>
