<svg width="18" height="23" viewBox="0 0 18 23" fill="none" xmlns="http://www.w3.org/2000/svg">
<g clip-path="url(#clip0)">
<path d="M8.99741 22.8453C7.75275 22.8453 6.74543 21.838 6.74543 20.5933H11.2494C11.2494 21.838 10.2421 22.8453 8.99741 22.8453Z" fill="#0EA6FC"/>
<path d="M2.24668 16.0946V10.4673C2.24668 7.00761 4.08729 4.12276 7.30968 3.35803V2.59331C7.30968 1.65982 8.06386 0.90564 8.99735 0.90564C9.93084 0.90564 10.685 1.65982 10.685 2.59331V3.35803C13.9074 4.12276 15.748 7.00761 15.748 10.4673V16.0946L18 18.3466V19.47H-2.67029e-05V18.3466L2.24668 16.0946Z" fill="#0EA6FC"/>
</g>
<defs>
<clipPath id="clip0">
<rect width="18" height="21.9397" fill="white" transform="matrix(-1 0 0 1 18 0.90564)"/>
</clipPath>
</defs>
</svg>
