<svg width="12" height="15" viewBox="0 0 12 15" fill="none" xmlns="http://www.w3.org/2000/svg">
<g clip-path="url(#clip0)">
<path d="M5.99825 14.6265C5.16848 14.6265 4.49693 13.9549 4.49693 13.1251H7.49957C7.49957 13.9549 6.82802 14.6265 5.99825 14.6265Z" fill="white"/>
<path d="M1.49778 10.126V6.37447C1.49778 4.06799 2.72485 2.14475 4.87312 1.63493V1.12511C4.87312 0.502785 5.3759 0 5.99823 0C6.62056 0 7.12334 0.502785 7.12334 1.12511V1.63493C9.2716 2.14475 10.4987 4.06799 10.4987 6.37447V10.126L12 11.6273V12.3762H-2.67029e-05V11.6273L1.49778 10.126Z" fill="white"/>
</g>
<defs>
<clipPath id="clip0">
<rect width="12" height="14.6265" fill="white" transform="matrix(-1 0 0 1 12 0)"/>
</clipPath>
</defs>
</svg>
