<svg width="39" height="31" viewBox="0 0 39 31" fill="none" xmlns="http://www.w3.org/2000/svg">
<path d="M19.5 11.625C16.2825 11.625 13.65 14.2406 13.65 17.4375C13.65 20.6344 16.2825 23.25 19.5 23.25C22.7175 23.25 25.35 20.6344 25.35 17.4375C25.35 14.2406 22.7175 11.625 19.5 11.625ZM35.1 5.8125H30.42C29.7863 5.8125 29.1038 5.32812 28.86 4.69844L27.6413 1.11406C27.4463 0.484375 26.7638 0 26.13 0H12.87C12.2362 0 11.5538 0.484375 11.31 1.11406L10.0913 4.69844C9.89625 5.32812 9.21375 5.8125 8.58 5.8125H3.9C1.755 5.8125 0 7.55625 0 9.6875V27.125C0 29.2563 1.755 31 3.9 31H35.1C37.245 31 39 29.2563 39 27.125V9.6875C39 7.55625 37.245 5.8125 35.1 5.8125ZM19.5 27.125C14.1375 27.125 9.75 22.7656 9.75 17.4375C9.75 12.1094 14.1375 7.75 19.5 7.75C24.8625 7.75 29.25 12.1094 29.25 17.4375C29.25 22.7656 24.8625 27.125 19.5 27.125ZM33.735 12.4C33.0037 12.4 32.37 11.7703 32.37 11.0437C32.37 10.3172 33.0037 9.6875 33.735 9.6875C34.4662 9.6875 35.1 10.3172 35.1 11.0437C35.1 11.7703 34.4662 12.4 33.735 12.4Z" fill="white"/>
</svg>
