<svg width="18" height="17" viewBox="0 0 18 17" fill="none" xmlns="http://www.w3.org/2000/svg">
<path d="M6.52674 10.5029C8.06378 12.0051 9.81041 13.4722 10.5091 12.7736C11.5221 11.7605 12.116 10.8872 14.3167 12.6688C16.5175 14.4154 14.8407 15.6031 13.8626 16.5812C12.7448 17.6991 8.58777 16.6511 4.46571 12.564C0.378591 8.47685 -0.704322 4.31987 0.413523 3.20202C1.39164 2.22391 2.54442 0.547139 4.32598 2.7479C6.10755 4.94866 5.23423 5.57744 4.25612 6.55556C3.55746 7.21928 4.9897 9.00084 6.52674 10.5029ZM8.76243 3.27189C8.76243 3.27189 8.3083 3.20202 7.99391 3.51642C7.67952 3.86574 7.64458 4.42466 7.99391 4.77399C8.20351 4.98359 8.48297 5.01852 8.48297 5.01852C9.04189 5.12332 9.91521 5.29798 10.8235 6.20623C11.7317 7.11448 11.9064 7.9878 12.0112 8.54672C12.0112 8.54672 12.0461 8.82618 12.2557 9.03578C12.605 9.3851 13.1639 9.3851 13.5133 9.03578C13.8277 8.72138 13.7578 8.26726 13.7578 8.26726C13.5831 7.11448 13.0242 5.89184 12.0461 4.94865C11.1029 4.00547 9.91521 3.44655 8.76243 3.27189ZM13.0941 3.97054C14.7708 5.64731 15.4695 7.53367 15.2599 9.07071C15.2599 9.07071 15.19 9.55977 15.5044 9.87416C15.8538 10.2235 16.4127 10.2235 16.762 9.87416C16.9716 9.66456 17.0415 9.31524 17.0415 9.31524C17.2161 7.9878 17.0065 5.29798 14.3866 2.71296C11.7666 0.0930149 9.11176 -0.151514 7.78431 0.0580821C7.78431 0.0580821 7.43499 0.0930148 7.22539 0.337543C6.87607 0.68687 6.87607 1.24579 7.22539 1.59512C7.53979 1.90951 8.02884 1.83965 8.02884 1.83965C9.49601 1.56019 11.4173 2.29377 13.0941 3.97054Z" fill="#1DABFD"/>
</svg>
