<svg width="12" height="15" viewBox="0 0 12 15" fill="none" xmlns="http://www.w3.org/2000/svg">
<path d="M5.99984 7.33714C7.75341 7.33714 9.1779 5.69571 9.1779 3.66857C9.1779 1.64143 8.70908 0 5.99984 0C3.2906 0 2.82178 1.64143 2.82178 3.66857C2.82178 5.69571 4.24627 7.33714 5.99984 7.33714Z" fill="#C1C1C1"/>
<path d="M11.9911 12.7886C11.9325 9.26142 11.4456 8.25428 7.73565 7.61571C7.73565 7.61571 7.21274 8.24999 5.99561 8.24999C4.77848 8.24999 4.25556 7.61571 4.25556 7.61571C0.586139 8.24571 0.0722396 9.23571 0.00462125 12.6729C0.000113357 12.9514 -0.00439453 12.9686 -0.00439453 12.9343C-0.00439453 12.9943 -0.00439453 13.11 -0.00439453 13.3071C-0.00439453 13.3071 0.879152 15 5.99561 15C11.1121 15 11.9956 13.3071 11.9956 13.3071C11.9956 13.1786 11.9956 13.0929 11.9956 13.0329C12.0001 13.0543 11.9956 13.0157 11.9911 12.7886Z" fill="#C1C1C1"/>
</svg>
