<svg width="13" height="19" viewBox="0 0 13 19" fill="none" xmlns="http://www.w3.org/2000/svg">
<path d="M13 6.65C13 5.77671 12.8319 4.91197 12.5052 4.10516C12.1786 3.29834 11.6998 2.56525 11.0962 1.94774C10.4926 1.33023 9.77606 0.840395 8.98744 0.506201C8.19883 0.172007 7.35359 0 6.5 0C5.64641 0 4.80117 0.172007 4.01256 0.506201C3.22394 0.840395 2.50739 1.33023 1.90381 1.94774C1.30023 2.56525 0.821438 3.29834 0.494783 4.10516C0.168127 4.91197 -1.27195e-08 5.77671 0 6.65C0 7.96765 0.380714 9.19315 1.02607 10.2268H1.01864C3.21007 13.737 6.5 19 6.5 19L11.9814 10.2268H11.9749C12.6438 9.1593 12.9996 7.918 13 6.65ZM6.5 9.5C5.76118 9.5 5.05262 9.19973 4.5302 8.66525C4.00778 8.13078 3.71429 7.40587 3.71429 6.65C3.71429 5.89413 4.00778 5.16922 4.5302 4.63475C5.05262 4.10027 5.76118 3.8 6.5 3.8C7.23882 3.8 7.94737 4.10027 8.4698 4.63475C8.99222 5.16922 9.28571 5.89413 9.28571 6.65C9.28571 7.40587 8.99222 8.13078 8.4698 8.66525C7.94737 9.19973 7.23882 9.5 6.5 9.5Z" fill="#C3C3C3"/>
</svg>
