<svg width="7" height="13" viewBox="0 0 7 13" fill="none" xmlns="http://www.w3.org/2000/svg">
<path d="M4.025 6.69697C5.66541 6.69697 7 5.19484 7 3.34848C7 1.50213 5.66541 0 4.025 0C4.0186 0 4.01222 0.000118182 4.00589 0.000393939H1.5757C1.57545 0.000393939 1.57525 0.000354545 1.57503 0.000354545C1.28509 0.000354545 1.05003 0.264924 1.05003 0.591264V0.591303V6.10606V7.87879H0.525C0.23506 7.87879 0 8.14336 0 8.4697C0 8.79604 0.23506 9.06061 0.525 9.06061H1.05V12.4091C1.05 12.7354 1.28506 13 1.575 13C1.86494 13 2.1 12.7354 2.1 12.4091V9.06061H4.025C4.31494 9.06061 4.55 8.79604 4.55 8.4697C4.55 8.14336 4.31494 7.87879 4.025 7.87879H2.1V6.69697H4.025ZM4.025 1.18221C4.03067 1.18221 4.03634 1.18209 4.04194 1.1819C5.09565 1.19214 5.95 2.16013 5.95 3.34848C5.95 4.54318 5.08644 5.51515 4.025 5.51515H2.1V1.18221H4.025Z" fill="#333333"/>
</svg>
