<svg id="Слой_1" data-name="Слой 1" xmlns="http://www.w3.org/2000/svg" viewBox="0 0 60 60"><title>Монтажная область 2 копия 10</title><path d="M40.72,6.08H19.28a13.22,13.22,0,0,0-13.2,13.2V40.72a13.21,13.21,0,0,0,13.2,13.2H40.72a13.22,13.22,0,0,0,13.2-13.2V19.28a13.22,13.22,0,0,0-13.2-13.2Zm9,34.64a9,9,0,0,1-9,9H19.28a9,9,0,0,1-9-9V19.28a9,9,0,0,1,9-9H40.72a9,9,0,0,1,9,9Zm0,0"/><path d="M30,17.68A12.33,12.33,0,1,0,42.33,30,12.33,12.33,0,0,0,30,17.68Zm0,20.4A8.08,8.08,0,1,1,38.08,30,8.08,8.08,0,0,1,30,38.08Zm0,0"/><path d="M42.84,14.08A3.11,3.11,0,1,0,45,15a3.13,3.13,0,0,0-2.2-.91Zm0,0"/></svg>